<svg width="1000" height="1000" viewBox="0 0 1000 1000" fill="none" xmlns="http://www.w3.org/2000/svg">
  <g clip-path="url(#clip0_12_114)">
    <circle cx="500" cy="500" r="501" fill="#3451B2"/>
    <path d="M527.689 181.837C527.689 176.585 533.371 173.3 537.922 175.921L786.318 318.937C794.783 323.81 800 332.834 800 342.601V656.482C800 666.249 794.783 675.272 786.318 680.146L537.922 823.162C533.371 825.783 527.689 822.498 527.689 817.246V712.295C622.477 701.036 697.735 626.099 709.484 531.461H590.765C579.587 569.438 544.465 597.161 502.868 597.161C452.272 597.161 411.255 556.144 411.255 505.547C411.255 454.95 452.272 413.934 502.868 413.934C544.694 413.934 579.973 441.962 590.948 480.261L709.561 480.261C698.068 385.327 622.687 310.083 527.689 298.799V181.837Z" fill="white"/>
    <path d="M467.956 300.249V184.344C467.956 179.093 462.274 175.808 457.723 178.428L213.682 318.937C205.217 323.81 200 332.834 200 342.601V656.482C200 666.249 205.217 675.272 213.682 680.146L457.723 820.655C462.274 823.275 467.956 819.99 467.956 814.739V710.845C369.585 694.238 294.656 608.643 294.656 505.547C294.656 402.452 369.585 316.856 467.956 300.249Z" fill="white"/>
  </g>
  <defs>
    <clipPath id="clip0_12_114">
      <rect width="1000" height="1000" fill="white"/>
    </clipPath>
  </defs>
</svg>
